<svg xmlns="http://www.w3.org/2000/svg" width="390" height="450"><g id="Artboard" fill="none" fill-rule="evenodd" stroke="none" stroke-width="1"><g id="Group" stroke="#FFF" transform="translate(36 4)"><path id="Line" stroke-linecap="round" stroke-linejoin="round" stroke-width="8" d="m183 204 164-95M297.5 105.5 347 109M325.5 152.5 347 109M156.5 190.5V.5M127.5 39.5l29-39M183.5 39.5l-27-39M133.5 198.5.5 64.5M49.5 73.5l-49-9M9.5 109.5l-9-45M156.5 246.5v193M127.5 398.5l29 41M183.5 398.5l-27 41M176.5 241.5l135 134M301.5 326.5l10 49M265.5 365.5l46 10"/><circle id="Oval" cx="156" cy="219" r="25" stroke-width="13"/></g></g></svg>