<svg xmlns="http://www.w3.org/2000/svg" width="241" height="291"><g id="Artboard" fill="none" fill-rule="evenodd" stroke="none" stroke-width="1"><g id="Group-3"><path id="Combined-Shape" fill="#FFF" d="M35 110H0V16C0 7.163 7.163 0 16 0h143c8.284 0 15 6.716 15 15v3c0 8.284-6.716 15-15 15H35z"/><path id="Combined-Shape" fill="#F1C40F" d="M226 0c8.284 0 15 6.716 15 15v2c0 8.284-6.716 15-15 15h-82v24c0 8.837-7.163 16-16 16h-3c-8.837 0-16-7.163-16-16V0z" transform="rotate(180 175 36)"/><path id="Combined-Shape" fill="#F1C40F" d="M226 84c8.284 0 15 6.716 15 15v2c0 8.18-6.547 14.83-14.686 14.997L226 116H106v122H71V100c0-8.837 7.163-16 16-16z" transform="rotate(180 156 161)"/><path id="Combined-Shape-Copy" fill="#FFF" d="M114 122c8.284 0 15 6.716 15 15v3c0 8.284-6.716 15-15 15H36v67c0 8.837-7.163 16-16 16h-4c-8.837 0-16-7.163-16-16V122z"/></g><text id="MOTION" fill="#FFF" font-family="GillSans-SemiBold, Gill Sans" font-size="56" font-weight="500">
            <tspan x="1" y="291">MOTION</tspan>
        </text></g></svg>